<?xml version="1.0" encoding="utf-8"?>
<!-- Generator: Adobe Illustrator 19.1.0, SVG Export Plug-In . SVG Version: 6.00 Build 0)  -->
<svg version="1.1" id="Layer_1" xmlns="http://www.w3.org/2000/svg" xmlns:xlink="http://www.w3.org/1999/xlink" x="0px" y="0px"
	 viewBox="0 0 24 24" style="enable-background:new 0 0 24 24;" xml:space="preserve">
<style type="text/css">
	.st0{fill-rule:evenodd;clip-rule:evenodd;}
</style>
<g id="calendar">
	<g>
		<path class="st0" d="M13,13h-2c-0.6,0-1,0.4-1,1c0,0.6,0.4,1,1,1h2c0.6,0,1-0.4,1-1C14,13.4,13.6,13,13,13z M19,17h-2
			c-0.6,0-1,0.4-1,1c0,0.6,0.4,1,1,1h2c0.6,0,1-0.4,1-1C20,17.4,19.6,17,19,17z M11,11h2c0.6,0,1-0.4,1-1c0-0.6-0.4-1-1-1h-2
			c-0.6,0-1,0.4-1,1C10,10.6,10.4,11,11,11z M16,2h-2v2h2V2z M18,6c0.6,0,1-0.4,1-1V1c0-0.6-0.4-1-1-1c-0.6,0-1,0.4-1,1v4
			C17,5.6,17.4,6,18,6z M19,13h-2c-0.6,0-1,0.4-1,1c0,0.6,0.4,1,1,1h2c0.6,0,1-0.4,1-1C20,13.4,19.6,13,19,13z M17,11h2
			c0.6,0,1-0.4,1-1c0-0.6-0.4-1-1-1h-2c-0.6,0-1,0.4-1,1C16,10.6,16.4,11,17,11z M12,6c0.6,0,1-0.4,1-1V1c0-0.6-0.4-1-1-1
			c-0.6,0-1,0.4-1,1v4C11,5.6,11.4,6,12,6z M7,17H5c-0.6,0-1,0.4-1,1c0,0.6,0.4,1,1,1h2c0.6,0,1-0.4,1-1C8,17.4,7.6,17,7,17z M7,13
			H5c-0.6,0-1,0.4-1,1c0,0.6,0.4,1,1,1h2c0.6,0,1-0.4,1-1C8,13.4,7.6,13,7,13z M22,2h-2v2h2v18H2V4h2V2H2C0.9,2,0,2.9,0,4v18
			c0,1.1,0.9,2,2,2h20c1.1,0,2-0.9,2-2V4C24,2.9,23.1,2,22,2z M13,17h-2c-0.6,0-1,0.4-1,1c0,0.6,0.4,1,1,1h2c0.6,0,1-0.4,1-1
			C14,17.4,13.6,17,13,17z M10,2H8v2h2V2z M6,6c0.6,0,1-0.4,1-1V1c0-0.6-0.4-1-1-1C5.4,0,5,0.4,5,1v4C5,5.6,5.4,6,6,6z M5,11h2
			c0.6,0,1-0.4,1-1c0-0.6-0.4-1-1-1H5c-0.6,0-1,0.4-1,1C4,10.6,4.4,11,5,11z"/>
	</g>
</g>
</svg>
