<?xml version="1.0" encoding="utf-8"?>
<!-- Generator: Adobe Illustrator 26.0.2, SVG Export Plug-In . SVG Version: 6.00 Build 0)  -->
<svg version="1.1" id="Layer_1" xmlns="http://www.w3.org/2000/svg" xmlns:xlink="http://www.w3.org/1999/xlink" x="0px" y="0px"
	 viewBox="0 0 28 25.4" style="enable-background:new 0 0 28 25.4;" xml:space="preserve">
<style type="text/css">
	.st0{clip-path:url(#SVGID_00000127756867257655126240000013737437005550170268_);}
	.st1{fill:#FFFFFF;}
</style>
<g>
	<defs>
		<rect id="SVGID_1_" y="-1.3" width="28" height="28"/>
	</defs>
	<clipPath id="SVGID_00000012461858919162318770000000082717464334529664_">
		<use xlink:href="#SVGID_1_"  style="overflow:visible;"/>
	</clipPath>
	<g style="clip-path:url(#SVGID_00000012461858919162318770000000082717464334529664_);">
		<path class="st1" d="M28,8c0,3.8-2.7,7-4.8,9.1c-0.4,0.4-1.1,0.4-1.5,0l0,0c-0.4-0.4-0.4-1.1,0-1.5c2.8-2.9,4.1-5.3,4.1-7.6
			c0-3.4-2.2-5.8-5.4-5.8C18.7,2.1,17,3,16,4.5c-0.5,0.8-0.7,1.6-0.9,2.5c0,0.6-0.5,1.1-1.1,1.1S13,7.6,13,7
			c-0.1-0.9-0.4-1.7-0.9-2.5c-1-1.6-2.7-2.4-4.6-2.3C4.4,2.2,2.2,4.6,2.2,8c0.1,1.7,0.7,3.4,1.8,4.8h2.6L8.4,9
			c0.3-0.6,0.9-0.8,1.5-0.5c0.2,0.1,0.4,0.3,0.5,0.5l2.2,5l1.4-2.8c0.2-0.4,0.6-0.6,1-0.6l0,0c0.4,0,0.8,0.2,1,0.6l0.8,1.5h2.4
			c0.6,0.1,1,0.6,1,1.2c-0.1,0.5-0.5,0.9-1,1h-3.1c-0.4,0-0.8-0.2-1-0.6L15,14.1l-1.5,3c-0.2,0.4-0.6,0.6-1,0.6l0,0
			c-0.4,0-0.8-0.3-1-0.6l-2.2-5l-1,2.2c-0.2,0.4-0.6,0.6-1,0.6H1.1c-0.6-0.1-1-0.6-1-1.2c0.1-0.5,0.5-0.9,1-1h0.3
			C0.5,11.3,0,9.6,0,8c-0.1-2.1,0.7-4.2,2.2-5.8C3.6,0.8,5.6,0,7.6,0c2.6-0.2,5.1,1.2,6.4,3.4v0.1V3.4c1.3-2.2,3.8-3.6,6.4-3.4
			c2,0,3.9,0.8,5.3,2.2C27.3,3.7,28.1,5.8,28,8z M17.8,19.1L17.8,19.1c-1.4,1.2-2.7,2.4-3.8,3.5c-1.1-1.1-2.4-2.3-3.8-3.5l-2.2-2
			c-0.4-0.4-1.1-0.4-1.6,0s-0.4,1.1,0,1.6l0,0c0.8,0.7,1.5,1.4,2.3,2c1.6,1.3,3,2.7,4.4,4.2l0,0l0.1,0.1l0.1,0.1l0.1,0.1l0.1,0h0.1
			l0,0h0.1h0.1h0.6h0.1h0.1l0,0h0.1l0.1,0l0.1,0l0.1-0.1l0.1-0.1l0,0c1.3-1.5,2.8-2.9,4.4-4.2l0,0c0.4-0.4,0.4-1.1,0-1.6
			C18.7,18.8,18.1,18.7,17.8,19.1L17.8,19.1z"/>
	</g>
</g>
</svg>
