<?xml version="1.0" encoding="utf-8"?>
<!-- Generator: Adobe Illustrator 19.1.0, SVG Export Plug-In . SVG Version: 6.00 Build 0)  -->
<svg version="1.1" id="Layer_1" xmlns="http://www.w3.org/2000/svg" xmlns:xlink="http://www.w3.org/1999/xlink" x="0px" y="0px"
	 viewBox="0 0 24 24" style="enable-background:new 0 0 24 24;" xml:space="preserve">
<style type="text/css">
	.st0{fill-rule:evenodd;clip-rule:evenodd;}
</style>
<g id="accept">
	<g>
		<path class="st0" d="M16.5,6.1C16,5.8,15.4,6,15.1,6.5l-4.5,7.9l-2.2-2.2c-0.3-0.3-0.9-0.3-1.2,0c-0.4,0.4-0.4,0.9,0,1.2l2.8,2.8
			c0.1,0.2,0.2,0.4,0.4,0.5C10.6,17,10.8,17,11,17c0.3,0,0.5-0.1,0.7-0.3c0.1-0.1,0.2-0.3,0.2-0.4l4.9-8.8C17.2,7.1,17,6.4,16.5,6.1
			z M12,0C5.4,0,0,5.4,0,12c0,6.6,5.4,12,12,12c6.6,0,12-5.4,12-12C24,5.4,18.6,0,12,0z M12,22C6.5,22,2,17.5,2,12C2,6.5,6.5,2,12,2
			c5.5,0,10,4.5,10,10C22,17.5,17.5,22,12,22z"/>
	</g>
</g>
</svg>
