<?xml version="1.0" encoding="utf-8"?>
<!-- Generator: Adobe Illustrator 19.1.0, SVG Export Plug-In . SVG Version: 6.00 Build 0)  -->
<svg version="1.1" id="Layer_1" xmlns="http://www.w3.org/2000/svg" xmlns:xlink="http://www.w3.org/1999/xlink" x="0px" y="0px"
	 viewBox="0 0 24 24" style="enable-background:new 0 0 24 24;" xml:space="preserve">
<style type="text/css">
	.st0{fill-rule:evenodd;clip-rule:evenodd;fill:#101010;}
</style>
<g id="graph1">
	<g>
		<path class="st0" d="M4.3,15.7c0.4,0.4,1,0.4,1.4,0l4.3-4.2l4.3,4.2c0.2,0.3,0.6,0.4,0.9,0.3c0.2,0,0.4-0.1,0.6-0.3l0,0
			c0,0,0,0,0,0l7.7-4.6c0.5-0.3,0.7-1,0.5-1.5v0c-0.2-0.5-0.8-0.7-1.3-0.4L15,13.6l-4.3-4.3C10.5,9.1,10.3,9,10,9
			C9.7,9,9.5,9.1,9.3,9.3l-5,5C3.9,14.7,3.9,15.3,4.3,15.7L4.3,15.7z M23,22H2V1c0-0.6-0.4-1-1-1C0.4,0,0,0.4,0,1v22
			c0,0.6,0.4,1,1,1h22c0.6,0,1-0.4,1-1C24,22.4,23.6,22,23,22z"/>
	</g>
</g>
</svg>
