<?xml version="1.0" encoding="utf-8"?>
<!-- Generator: Adobe Illustrator 19.1.0, SVG Export Plug-In . SVG Version: 6.00 Build 0)  -->
<svg version="1.1" id="Layer_1" xmlns="http://www.w3.org/2000/svg" xmlns:xlink="http://www.w3.org/1999/xlink" x="0px" y="0px"
	 viewBox="0 0 24 24" style="enable-background:new 0 0 24 24;" xml:space="preserve">
<path d="M17.5,1.8c-2.3,0-4.4,1.2-5.5,3.1C10.9,3,8.8,1.8,6.5,1.8C2.9,1.8,0,5.7,0,9.3c0,3.6,7.9,12.5,11.5,12.5
	c0.2,0,0.3,0,0.5-0.1c0.2,0.1,0.3,0.1,0.5,0.1c3.6,0,11.5-8.9,11.5-12.5C24,5.7,21.1,1.8,17.5,1.8z M18.1,15.5
	c-2.5,2.8-4.7,4.2-5.5,4.2L12,19.6l-0.5,0.2c-0.8-0.1-3-1.5-5.5-4.2C3.2,12.6,2,10.1,2,9.3c0-2.5,2.1-5.5,4.5-5.5
	c1.5,0,3,0.8,3.8,2.1L12,8.6l1.7-2.7c0.8-1.3,2.3-2.1,3.8-2.1c2.4,0,4.5,3,4.5,5.5C22,10.1,20.8,12.6,18.1,15.5z"/>
</svg>
