<?xml version="1.0" encoding="utf-8"?>
<!-- Generator: Adobe Illustrator 26.0.2, SVG Export Plug-In . SVG Version: 6.00 Build 0)  -->
<svg version="1.1" id="Capa_1" opacity="0.7" xmlns="http://www.w3.org/2000/svg" xmlns:xlink="http://www.w3.org/1999/xlink"
	 x="0px" y="0px" viewBox="0 0 54.6 54.6" style="enable-background:new 0 0 54.6 54.6;" xml:space="preserve">
<style type="text/css">
	.st0{fill:#96CFCF;}
</style>
<g>
	<g>
		<path class="st0" d="M27.3,3.9c-8,0-14.6,6.5-14.6,14.6S19.3,33,27.3,33c8,0,14.6-6.5,14.6-14.6S35.3,3.9,27.3,3.9z M27.3,31
			c-6.9,0-12.6-5.6-12.6-12.6c0-6.9,5.6-12.6,12.6-12.6c6.9,0,12.6,5.6,12.6,12.6S34.2,31,27.3,31z"/>
		<path class="st0" d="M27.3,7.7c-0.6,0-1,0.4-1,1s0.4,1,1,1c4.8,0,8.8,3.9,8.8,8.8c0,0.6,0.4,1,1,1s1-0.4,1-1
			C38,12.5,33.2,7.7,27.3,7.7z"/>
		<path class="st0" d="M45.7,18.5C45.7,8.3,37.5,0,27.3,0S8.8,8.3,8.8,18.5c0,5.9,2.8,11.5,7.6,14.9l-5.9,15.1
			c-0.1,0.3-0.1,0.7,0.1,1c0.2,0.3,0.5,0.4,0.9,0.4l6.7-0.4l4.7,4.8c0.2,0.2,0.5,0.3,0.7,0.3c0.1,0,0.1,0,0.2,0
			c0.3-0.1,0.6-0.3,0.7-0.6l2.7-7l2.7,7c0.1,0.3,0.4,0.5,0.7,0.6c0.1,0,0.1,0,0.2,0c0.3,0,0.5-0.1,0.7-0.3l4.7-4.8l6.7,0.4
			c0,0,0,0,0.1,0c0.5,0,1-0.4,1-1c0-0.2-0.1-0.4-0.2-0.5l-5.8-14.9C42.9,29.9,45.7,24.4,45.7,18.5z M23.3,51.7l-3.9-4
			c-0.2-0.2-0.4-0.3-0.7-0.3c0,0,0,0-0.1,0L13,47.7l5.2-13.2c0,0,0,0,0.1,0c0.2,0.1,0.5,0.2,0.7,0.4c0.2,0.1,0.4,0.2,0.6,0.3
			c0.1,0,0.2,0.1,0.2,0.1c1.5,0.7,3.2,1.2,4.9,1.4c0,0,0,0,0,0c0.4,0.1,0.7,0.1,1.1,0.1c0.1,0,0.2,0,0.3,0c0.3,0,0.6,0,0.9,0
			c0.1,0,0.3,0,0.4,0c0,0,0.1,0,0.1,0c0.5,0,1,0,1.5-0.1c0,0,0.1,0,0.1,0c0,0,0,0,0,0l-2.7,7c0,0,0,0,0,0L23.3,51.7z M36,47.4
			c-0.3,0-0.6,0.1-0.8,0.3l-3.9,4l-2.9-7.5l3-7.7c0.3-0.1,0.7-0.2,1-0.3c0.1,0,0.2,0,0.2-0.1c0.5-0.2,1-0.3,1.5-0.5
			c0.1-0.1,0.3-0.1,0.4-0.2c0.4-0.2,0.7-0.3,1.1-0.5c0.2-0.1,0.3-0.2,0.5-0.2c0.1-0.1,0.2-0.1,0.3-0.2l5.2,13.2L36,47.4z M36.3,32.2
			c-1.8,1.2-3.8,2-5.9,2.4c-1.6,0.3-3.3,0.4-4.8,0.2c-2.6-0.3-5.1-1.2-7.4-2.6c-4.6-3.1-7.4-8.2-7.4-13.7C10.8,9.4,18.2,2,27.3,2
			s16.5,7.4,16.5,16.5C43.7,24,41,29.1,36.3,32.2z"/>
	</g>
</g>
</svg>
