<?xml version="1.0" encoding="utf-8"?>
<!-- Generator: Adobe Illustrator 26.0.2, SVG Export Plug-In . SVG Version: 6.00 Build 0)  -->
<svg version="1.1" id="Layer_1" xmlns:v="https://vecta.io/nano"
	 xmlns="http://www.w3.org/2000/svg" xmlns:xlink="http://www.w3.org/1999/xlink" x="0px" y="0px" viewBox="0 0 28 28"
	 style="enable-background:new 0 0 28 28;" xml:space="preserve">
<style type="text/css">
	.st0{clip-path:url(#SVGID_00000173872837401656635440000008293118267444955059_);}
	.st1{fill:#FFFFFF;}
</style>
<g>
	<g>
		<defs>
			<rect id="SVGID_1_" width="28" height="28"/>
		</defs>
		<clipPath id="SVGID_00000081620578374322854740000015788126952660168369_">
			<use xlink:href="#SVGID_1_"  style="overflow:visible;"/>
		</clipPath>
		<g style="clip-path:url(#SVGID_00000081620578374322854740000015788126952660168369_);">
			<path class="st1" d="M27,22.3c-0.6,0-1.1,0.4-1.2,1l-0.2,2.1v0.3c-1.2,0-2.9-0.1-4.4-0.5c-1.6-0.4-2-0.9-2-1v-15
				c0-0.1,0-0.1,0.1-0.2c0.2,0,0.3,0,0.3,0c0.8,0.3,2,1.1,3.1,2.6c0.9,1.2,2.2,3.4,2.8,6.8c0.1,0.6,0.7,1,1.3,0.9s1-0.7,0.9-1.3
				c-0.5-3-1.6-5.7-3.2-7.7c-1.3-1.7-2.8-2.9-4.2-3.4c-0.9-0.3-1.9-0.1-2.5,0.6c-0.5,0.5-0.7,1.1-0.7,1.7v4.3c-1-0.6-1.7-1.2-2-1.9
				v-0.1v-4c0-0.6-0.5-1.1-1.1-1.1S13,7,13,7.6v3.7c0,0.1,0,0.2-0.1,0.3c-0.4,0.8-1,1.5-1.9,2V9.2c0-0.6-0.3-1.3-0.7-1.7
				C9.6,6.8,8.6,6.6,7.8,6.9c-1.8,0.6-3.6,2.3-5,4.7c-1.3,2-2.8,5.6-2.8,11c0,0.8,0.1,2,0.3,3.5c0.1,1,1,1.8,2.1,1.8
				c0.6,0,2.9,0,5-0.6c1-0.2,1.7-0.6,2.3-1c1.1-0.7,1.3-1.6,1.3-2.2V16c1.3-0.6,2.3-1.3,3-2.2c0.9,1,2.1,1.7,3.1,2.2v8.2
				c0,0.6,0.2,1.4,1.3,2.2c0.6,0.4,1.3,0.7,2.3,1c2.1,0.5,4.4,0.6,5,0.6c1.1,0,2-0.8,2.1-1.8v-0.4c0.1-0.7,0.2-1.5,0.2-2.2
				C28.1,22.9,27.6,22.4,27,22.3L27,22.3z M8.8,24.2c0,0.1-0.3,0.6-2,1c-1.4,0.4-3.2,0.5-4.4,0.5c-0.2-1.4-0.2-2.5-0.2-3.2
				c0-4.9,1.3-8.1,2.4-10C6,10.4,7.5,9.2,8.5,8.9h0.1c0.1,0,0.1,0,0.2,0.1c0,0,0.1,0.1,0.1,0.2L8.8,24.2L8.8,24.2z M13,4.3
				c0-0.6,0.5-1.1,1.1-1.1s1.1,0.5,1.1,1.1s-0.5,1.1-1.1,1.1S13,4.9,13,4.3z M13,1c0-0.6,0.5-1.1,1.1-1.1s1.1,0.5,1.1,1.1
				s-0.5,1.1-1.1,1.1S13,1.6,13,1z"/>
		</g>
	</g>
</g>
</svg>
