<?xml version="1.0" encoding="utf-8"?>
<!-- Generator: Adobe Illustrator 19.1.0, SVG Export Plug-In . SVG Version: 6.00 Build 0)  -->
<svg version="1.1" id="Layer_1" xmlns="http://www.w3.org/2000/svg" xmlns:xlink="http://www.w3.org/1999/xlink" x="0px" y="0px"
	 viewBox="0 0 24 24" style="enable-background:new 0 0 24 24;" xml:space="preserve">
<style type="text/css">
	.st0{fill-rule:evenodd;clip-rule:evenodd;}
</style>
<g id="letter">
	<g>
		<path class="st0" d="M22,2.8h-1c0,0,0,0,0,0H3c0,0,0,0,0,0H2c-1.1,0-2,0.9-2,2v14c0,1.1,0.9,2,2,2h20c1.1,0,2-0.9,2-2v-14
			C24,3.7,23.1,2.8,22,2.8z M18.6,4.8L12,11.4L5.4,4.8H18.6z M22,18.8H2v-14h0.6l8.6,8.6c0,0,0,0.1,0.1,0.1c0.2,0.2,0.5,0.3,0.7,0.3
			c0.3,0,0.5-0.1,0.7-0.3c0,0,0-0.1,0.1-0.1l8.6-8.6H22V18.8z"/>
	</g>
</g>
</svg>
