<?xml version="1.0" encoding="utf-8"?>
<!-- Generator: Adobe Illustrator 26.0.2, SVG Export Plug-In . SVG Version: 6.00 Build 0)  -->
<svg version="1.1" id="Layer_1" xmlns="http://www.w3.org/2000/svg" xmlns:xlink="http://www.w3.org/1999/xlink" x="0px" y="0px"
	 viewBox="0 0 28 28" style="enable-background:new 0 0 28 28;" xml:space="preserve">
<style type="text/css">
	.st0{clip-path:url(#SVGID_00000015320686114682061600000003561911077866460323_);}
	.st1{fill:#FFFFFF;}
</style>
<g>
	<defs>
		<rect id="SVGID_1_" x="0" width="28" height="28"/>
	</defs>
	<clipPath id="SVGID_00000116195568630147619810000000399860518333609617_">
		<use xlink:href="#SVGID_1_"  style="overflow:visible;"/>
	</clipPath>
	<g style="clip-path:url(#SVGID_00000116195568630147619810000000399860518333609617_);">
		<path class="st1" d="M25.2,3c0.5,0.5,0.7,1.2,0.6,1.8c-0.1,0.7-0.4,1.4-1,1.8c-0.5,0.4-0.6,1.1-0.2,1.5c0,0,0,0,0,0l0,0
			c0.4,0.5,1.1,0.6,1.5,0.2c1-0.8,1.7-2,1.8-3.3c0.1-1.3-0.3-2.5-1.2-3.5c-0.2-0.2-0.5-0.5-0.7-0.6c-2.1-1.6-5.1-1.1-6.7,1
			c0,0,0,0,0,0L0.2,26.2c-0.4,0.5-0.3,1.2,0.2,1.5C0.6,27.9,0.8,28,1.1,28H2c3,0.1,5.9-0.6,8.5-2.1c2.3-1.4,3.7-4,3.6-6.8v-0.1
			c0-0.4,0.1-0.8,0.4-1.2c0.2-0.3,0.5-0.6,0.7-0.8l6.9-5.5c0.5-0.4,0.6-1,0.2-1.5c0,0,0,0,0,0l0,0c-0.4-0.5-1.1-0.5-1.5-0.2
			l-6.9,5.5c-0.2,0.2-0.5,0.4-0.6,0.6l-1.3-1l9.3-11.7l0,0c0.9-1.1,2.5-1.4,3.6-0.5C25,2.8,25.1,2.9,25.2,3L25.2,3z M12.1,17.9
			c-0.1,0.4-0.2,0.7-0.2,1.1v0.2C12,21.2,11,23,9.4,24c-1.8,1.1-3.9,1.7-6,1.8l7.2-9.1L12.1,17.9L12.1,17.9z M16,26.9
			c0,0.6-0.5,1.1-1.1,1.1c0,0,0,0,0,0h-1.7c-0.6-0.1-1-0.6-1-1.2c0.1-0.5,0.5-0.9,1-1h1.6C15.5,25.8,16,26.3,16,26.9L16,26.9z
			 M22,26.9c0,0.6-0.4,1.1-1,1.1h-1.7c-0.6,0.1-1.1-0.4-1.2-1c-0.1-0.6,0.4-1.1,1-1.2c0.1,0,0.1,0,0.2,0H21
			C21.6,25.8,22,26.3,22,26.9L22,26.9z M28,26.9c0,0.6-0.4,1.1-1,1.1h-1.7c-0.6,0.1-1.1-0.4-1.2-1c-0.1-0.6,0.4-1.1,1-1.2
			c0.1,0,0.1,0,0.2,0H27C27.6,25.8,28,26.3,28,26.9L28,26.9z"/>
	</g>
</g>
</svg>
