<?xml version="1.0" encoding="utf-8"?>
<!-- Generator: Adobe Illustrator 26.0.2, SVG Export Plug-In . SVG Version: 6.00 Build 0)  -->
<svg version="1.1" id="Layer_1" xmlns="http://www.w3.org/2000/svg" xmlns:xlink="http://www.w3.org/1999/xlink" x="0px" y="0px"
	 viewBox="0 0 28 28" style="enable-background:new 0 0 28 28;" xml:space="preserve">
<style type="text/css">
	.st0{fill:#FFFFFF;}
</style>
<path class="st0" d="M18.2,20.5c-0.6,0-1.1,0.5-1.1,1.1l0,0c-0.1,2.4-2.1,4.2-4.5,4.1c-2.2-0.1-4-1.9-4.1-4.1v-3.2l3.9-5.6l0.1-0.1
	l0.2-0.2c1.4-1.5,2.2-3.5,2.2-5.6V2.5c0-1.4-1.1-2.5-2.5-2.5c0,0,0,0,0,0h-2.1C9.7,0,9.2,0.5,9.2,1.1l0,0v1.1c0.1,0.6,0.6,1,1.2,1
	c0.5-0.1,0.9-0.5,1-1h0.9c0.2,0,0.4,0.2,0.4,0.3v4.3c0.2,2.9-2,5.4-4.9,5.6c-2.9,0.2-5.4-2-5.6-4.9c0-0.2,0-0.4,0-0.6
	c0,0,0-0.1,0-0.1V2.5c0-0.2,0.2-0.3,0.3-0.3h0.9c0.1,0.6,0.6,1,1.2,1c0.5-0.1,0.9-0.5,1-1v-1c0-0.6-0.4-1.1-1-1.1c0,0,0,0,0,0h-2
	C1.1,0,0,1.1,0,2.5c0,0,0,0,0,0v4.3c0,2.1,0.7,4.1,2.2,5.6l0.1,0.1c0,0.1,0.1,0.1,0.1,0.2l3.9,5.7v3.1c0.1,3.6,3.1,6.3,6.7,6.2
	c3.4-0.1,6.1-2.8,6.2-6.2C19.3,20.9,18.8,20.5,18.2,20.5C18.2,20.5,18.2,20.5,18.2,20.5z M7.4,14.6c0.4,0,0.7,0,1.1-0.1l-1.1,1.6
	l-1.1-1.6C6.7,14.6,7,14.6,7.4,14.6z M25.8,11.7V4.4c0.1-2.4-1.7-4.5-4.2-4.6S17.2,1.5,17.1,4c0,0.1,0,0.3,0,0.4v11.7
	c0.1,0.6,0.6,1,1.2,1c0.5-0.1,0.9-0.5,1-1V4.4c0-1.2,1-2.2,2.2-2.2c1.2,0,2.2,1,2.2,2.2c0,0,0,0,0,0v7.3c-1.7,0.6-2.6,2.5-2,4.2
	c0.6,1.7,2.5,2.6,4.2,2c1.7-0.6,2.6-2.5,2-4.2C27.5,12.8,26.7,12.1,25.8,11.7z M24.7,15.9c-0.6,0.1-1.1-0.4-1.2-1
	c-0.1-0.6,0.4-1.1,1-1.2c0.1,0,0.1,0,0.2,0c0.6,0.1,1,0.6,1,1.2C25.7,15.5,25.2,15.9,24.7,15.9z"/>
</svg>
